<?xml version="1.0" standalone="no"?><!DOCTYPE svg PUBLIC "-//W3C//DTD SVG 1.1//EN" "http://www.w3.org/Graphics/SVG/1.1/DTD/svg11.dtd"><svg t="1602488366960" class="icon" viewBox="0 0 1024 1024" version="1.1" xmlns="http://www.w3.org/2000/svg" p-id="2310" width="128" height="128" xmlns:xlink="http://www.w3.org/1999/xlink"><defs><style type="text/css"></style></defs><path d="M929.5 310.6c1.5 0.3 3 0.4 4.6 0.4 14.4 0 26.2-12.5 26.2-27.8 0-15.4-11.7-27.8-26.2-27.8s-26.2 12.5-26.2 27.8c0 9.1 4.1 17.2 10.5 22.3-3.5 5.3-6.5 10.5-8.2 14.6-1.2 3.1-4.2 9.5-8 17.8-6.1-1.9-12.6-2.9-19.3-3-9.1-19-38.8-80.8-44.2-93.8 5.8-5.1 9.5-12.8 9.5-21.5 0-15.4-11.7-27.8-26.2-27.8s-26.2 12.5-26.2 27.8 11.7 27.8 26.2 27.8h0.3c4.3 20.2 17.2 72.2 23.4 97.3-23.1 13.5-38.7 39.7-38.7 69.7 0 22.9-2.7 45.1-7.8 66.3C787.4 319.8 657.5 193 499.1 193c-166.2 0-301 139.5-301 311.5 0 63.7 18.5 123 50.2 172.3h-170C60 677 59 683 75 690.4l214.7 99.5c14.5 6.7 33.3 12.8 52.9 17.5 0.6 0.4 1.2 0.9 1.9 1.3 173.7 31.8 260.8 22 260.8 22C867 798.3 956.5 619.6 956.5 414.5c0-28.3-13.9-53.1-34.8-67.2 3.1-13.2 5.4-23.5 5.9-27.1 0.5-2.8 1.1-6.1 1.9-9.6z m-374.2-31.8s-1.1 0-3.3 0.1c-1.1 0-2.4 0.1-4 0.2s-3.4 0.1-5.5 0.3c-8.3 0.5-20.4 1.8-35.3 5.1-1.9 0.4-3.8 0.8-5.7 1.3-2 0.5-3.9 1.1-6 1.7-4.1 1-8.2 2.6-12.6 3.9-2.2 0.7-4.3 1.6-6.6 2.5-1.1 0.4-2.2 0.8-3.4 1.3s-2.2 1-3.4 1.4c-1.1 0.5-4.5 2-6.9 3-2.3 1.1-4.6 2.3-6.9 3.5-18.6 9.6-38.3 23.1-56 41.4-8.8 9.1-17.3 19.4-24.8 30.7-7.5 11.4-14.2 23.7-19.5 37.1s-9.5 27.5-11.9 42.3c-0.3 1.9-0.6 3.7-0.9 5.6-0.2 1.9-0.4 3.7-0.7 5.6-0.5 3.7-0.7 7.6-1 11.4l-0.2 2.8-0.1 2.7c0 2-0.1 4.1-0.1 6.1 0.2 3.6 0.1 7.1 0.5 11l0.2 2.8c0.1 1 0.2 1.9 0.3 2.8 0.3 1.9 0.5 3.8 0.7 5.7s0.7 3.8 1 5.6l0.5 2.8 0.6 2.8c1.6 7.5 3.9 14.9 6.6 22.2 0.7 1.8 1.3 3.7 2.2 5.4 0.8 1.8 1.6 3.6 2.4 5.3 1.8 3.5 3.4 7 5.4 10.4 1.9 3.5 4 6.7 6.1 10.1l3.4 4.9c1.1 1.6 2.4 3.1 3.6 4.7 4.9 6.2 10.1 12.2 15.9 17.6 5.8 5.4 11.9 10.5 18.4 15.1 13.1 9.1 27.5 16.3 42.7 20.9 1.9 0.5 3.8 1.2 5.7 1.7l5.8 1.5c2 0.4 3.9 0.8 5.9 1.2 1 0.2 2 0.4 2.9 0.6l2.9 0.4c3.9 0.7 7.9 1 11.9 1.4-0.1 0 0.7 0.1-0.1 0l7 0.3h4.7c0.9 0 1.9-0.1 2.8-0.1l2.9-0.2c1 0 1.9-0.1 2.9-0.2l2.9-0.3c3.8-0.4 7.6-1 11.4-1.8 7.5-1.6 14.9-3.9 21.9-6.9 7-3 13.8-6.6 20.1-10.9 6.4-4.2 12.3-9 17.7-14.2 10.9-10.5 19.6-23 26-36.3 3.2-6.7 5.6-13.6 7.5-20.7 0.5-1.8 0.9-3.5 1.3-5.3l0.6-2.7 0.4-2.7c0.3-1.8 0.7-3.6 0.9-5.3l0.4-2.7 0.2-1.3v-0.4c0-0.2 0 0.4 0 0l0.1-0.7 0.3-4.5v-1.2l0.1-2.4v-2.5c-0.1-1.7-0.1-3.5-0.2-5.2l-0.2-2.6c-0.1-0.9-0.2-1.7-0.3-2.6-0.8-6.8-2.4-13.4-4.6-19.8-2.1-6.4-5-12.5-8.3-18.1-3.3-5.7-7.3-10.9-11.5-15.8-8.5-9.6-18.7-17.3-29.5-22.8s-22.2-8.8-33.3-10.2l-0.8-0.1h-0.1l-1.1-0.1c-0.7-0.1-1.5-0.1-2.2-0.2-0.8-0.1-1.4-0.1-2-0.1-0.6 0-1.3-0.1-1.9-0.1-2.6-0.1-5.3 0-7.9 0.1-5.3 0.4-10.3 1.2-15.1 2.5-9.7 2.5-18.3 6.7-25.6 11.7-3.7 2.5-7 5.2-10 7.9-3 2.8-5.7 5.6-8.1 8.5-2.4 2.9-4.5 5.8-6.2 8.6-0.4 0.7-0.9 1.4-1.3 2.1l-1.2 2.1c-0.8 1.4-1.5 2.7-2.1 4.1-2.6 5.3-4.3 10.1-5.5 14.1-0.5 2-1.1 3.7-1.4 5.3-0.3 1.6-0.7 2.8-0.8 3.9-0.4 2.1-0.6 3.2-0.6 3.2v-3.3c0-1.1 0.1-2.4 0.2-4s0.3-3.5 0.6-5.5c0.6-4.2 1.6-9.3 3.6-15.2 1.9-5.9 4.8-12.6 9.1-19.4 2.1-3.4 4.7-6.9 7.6-10.4 2.9-3.5 6.3-6.8 10-10.1s7.9-6.3 12.6-9.1c4.6-2.8 9.7-5.3 15.1-7.4 5.4-2.1 11.3-3.7 17.5-4.7 3.1-0.5 6.2-0.9 9.5-1.1 0.8 0 1.7-0.1 2.5-0.1s1.7-0.1 2.4-0.1h4.7c13.1 0.4 26.8 3.2 40.4 8.6 13.5 5.4 26.6 13.9 38 24.9s21 24.9 27.6 40.8c3.3 7.9 5.8 16.3 7.3 25l0.6 3.3 0.4 3.3c0.3 2.2 0.5 4.5 0.6 6.7 0.2 2.2 0.2 4.7 0.3 7v3.3l-0.1 3v2l-0.1 1.7-0.2 3.3c-0.1 2.2-0.4 4.5-0.7 6.7l-0.4 3.4-0.6 3.3c-0.4 2.2-0.8 4.5-1.3 6.7-2 8.9-4.7 17.7-8.4 26.3-7.2 17.1-17.9 33.2-31.3 46.9-6.7 6.9-14.1 13.2-22 18.8-8 5.5-16.6 10.4-25.5 14.3-18 7.9-37.6 12.6-57.7 13h-6.8l-7-0.3c-1-0.1-0.5 0-0.9-0.1-4.8-0.4-9.7-0.8-14.5-1.6l-3.6-0.5c-1.2-0.2-2.4-0.4-3.6-0.7-2.4-0.5-4.8-0.9-7.2-1.4l-7.1-1.8c-1.2-0.3-2.4-0.6-3.5-1l-3.5-1.1c-18.7-5.8-36.4-14.8-52.3-26-7.9-5.7-15.4-11.9-22.3-18.7-6.9-6.8-13.2-14.1-19-21.8-5.8-7.7-10.9-15.8-15.4-24.2-2.3-4.2-4.2-8.5-6.2-12.8l-2.7-6.6c-0.9-2.2-1.6-4.4-2.4-6.6-3.1-8.9-5.6-17.9-7.2-27-1.7-9.1-2.7-18.3-3-27.4-0.3-4.5-0.1-9.3 0-14 0.1-2.1 0.3-4.1 0.4-6.2l0.2-3.5 0.4-3.3c0.5-4.4 0.9-8.7 1.7-13 0.4-2.1 0.7-4.3 1.1-6.4 0.4-2.1 0.9-4.2 1.4-6.3 3.8-16.7 9.2-32.7 16.2-47.3 6.9-14.7 15.3-28.1 24.6-40.2s19.4-22.6 29.9-31.8c10.6-9.2 21.4-17 32.3-23.4s21.7-11.6 32.1-15.6c2.6-1 5.2-1.9 7.7-2.8 2.6-0.8 5.1-1.6 7.6-2.4 1.2-0.4 2.5-0.8 3.7-1.1 1.2-0.3 2.5-0.6 3.7-1s4.8-1.3 7.1-1.8c4.7-0.9 9.2-2 13.5-2.5 2.2-0.3 4.3-0.6 6.3-0.9 2.1-0.3 4.1-0.4 6.1-0.6s3.9-0.4 5.7-0.5c1.9-0.1 3.7-0.2 5.4-0.2s3.5-0.1 5.1-0.2c1.6 0 3.2 0 4.8 0.1 6.1 0 11.3 0.4 15.5 0.7 2.1 0.1 3.9 0.4 5.5 0.6 1.6 0.2 2.9 0.4 4 0.5 2.1 0.3 3.2 0.4 3.2 0.4l-0.3 0.1z" p-id="2311" fill="#1296db"></path></svg>